<svg id="Component_2_1" data-name="Component 2 – 1" xmlns="http://www.w3.org/2000/svg" width="32" height="32" viewBox="0 0 39 37">
  <g id="Path_8" data-name="Path 8" fill="#fff">
    <path d="M 32 31 L 7 31 C 3.691590070724487 31 1 28.30841064453125 1 25 L 1 7 C 1 3.691590070724487 3.691590070724487 1 7 1 L 32 1 C 35.30841064453125 1 38 3.691590070724487 38 7 L 38 17.28121948242188 L 38 25 C 38 28.30841064453125 35.30841064453125 31 32 31 Z" stroke="none"/>
    <path d="M 7 2 C 4.242988586425781 2 2 4.242990493774414 2 7 L 2 25 C 2 27.75700950622559 4.242988586425781 30 7 30 L 32 30 C 34.75701141357422 30 37 27.75700950622559 37 25 L 37 17.28121948242188 L 37 7 C 37 4.242990493774414 34.75701141357422 2 32 2 L 7 2 M 7 0 L 32 0 C 35.86598968505859 0 39 3.134010314941406 39 7 L 39 17.28121948242188 L 39 25 C 39 28.86598968505859 35.86598968505859 32 32 32 L 7 32 C 3.134010314941406 32 0 28.86598968505859 0 25 L 0 7 C 0 3.134010314941406 3.134010314941406 0 7 0 Z" stroke="none" fill="#5f6d91"/>
  </g>
  <g id="Group_19" data-name="Group 19" transform="translate(-144 -63)">
    <text id="OT" transform="translate(163 81)" fill="#de4a4a" font-size="20" font-family="AcademyEngravedLetPlain, Academy Engraved LET" letter-spacing="-0.05em"><tspan x="-13.987" y="0">OT</tspan></text>
    <text id="AS" transform="translate(163 90)" fill="#de4a4a" font-size="20" font-family="AcademyEngravedLetPlain, Academy Engraved LET" letter-spacing="-0.05em"><tspan x="-12.269" y="0">AS</tspan></text>
  </g>
</svg>


