<svg xmlns="http://www.w3.org/2000/svg" width="79.478" height="31.493" viewBox="0 0 79.478 31.493">
  <g id="Group_10" data-name="Group 10" transform="translate(-1687.885 -2461.966)">
    <g id="_002-instagram" data-name="002-instagram" transform="translate(1687.885 2461.966)">
      <path id="Path_2" data-name="Path 2" d="M33.526,9.259a11,11,0,0,0-.771-3.821,7.66,7.66,0,0,0-1.918-2.793A8.217,8.217,0,0,0,27.9.831,12.717,12.717,0,0,0,23.879.1C22.1.019,21.54,0,17.036,0S11.97.019,10.2.092A12.688,12.688,0,0,0,6.177.824,8.146,8.146,0,0,0,3.235,2.645,7.727,7.727,0,0,0,1.324,5.432a11.032,11.032,0,0,0-.771,3.82c-.084,1.686-.1,2.221-.1,6.5s.019,4.811.1,6.491a11,11,0,0,0,.771,3.821,7.74,7.74,0,0,0,1.918,2.793,8.217,8.217,0,0,0,2.935,1.815,12.719,12.719,0,0,0,4.024.732c1.769.074,2.333.092,6.836.092s5.067-.018,6.836-.092a12.681,12.681,0,0,0,4.024-.732,8.282,8.282,0,0,0,4.853-4.608,11.039,11.039,0,0,0,.771-3.821c.078-1.68.1-2.215.1-6.491S33.6,10.939,33.526,9.259ZM30.54,22.117a8.254,8.254,0,0,1-.57,2.922,5.371,5.371,0,0,1-3.149,2.99,9.548,9.548,0,0,1-3.078.541c-1.749.074-2.274.092-6.7.092s-4.957-.018-6.7-.092a9.509,9.509,0,0,1-3.078-.541,5.138,5.138,0,0,1-1.9-1.175,4.879,4.879,0,0,1-1.238-1.809,8.284,8.284,0,0,1-.57-2.922c-.078-1.661-.1-2.159-.1-6.361s.019-4.706.1-6.361a8.249,8.249,0,0,1,.57-2.922A4.772,4.772,0,0,1,5.367,4.669a5.184,5.184,0,0,1,1.9-1.175,9.554,9.554,0,0,1,3.078-.541c1.749-.074,2.274-.092,6.7-.092s4.957.019,6.7.092a9.514,9.514,0,0,1,3.078.541,5.135,5.135,0,0,1,1.9,1.175,4.878,4.878,0,0,1,1.238,1.809A8.287,8.287,0,0,1,30.54,9.4c.078,1.661.1,2.159.1,6.361S30.617,20.456,30.54,22.117Zm0,0" transform="translate(-0.449 0)" fill="#fff"/>
      <path id="Path_3" data-name="Path 3" d="M131.752,124.5c-3.756,0-6.8,2.671-6.8,5.964s3.047,5.964,6.8,5.964,6.8-2.671,6.8-5.964S135.508,124.5,131.752,124.5Zm0,9.833a3.9,3.9,0,1,1,4.413-3.869A4.168,4.168,0,0,1,131.752,134.333Zm0,0" transform="translate(-115.163 -114.714)" fill="#fff"/>
      <path id="Path_4" data-name="Path 4" d="M367.276,91.015a2.413,2.413,0,1,1-2.413-2.413A2.413,2.413,0,0,1,367.276,91.015Zm0,0" transform="translate(-339.675 -83.357)" fill="#fff"/>
    </g>
    <g id="_005-twitter" data-name="005-twitter" transform="translate(1733.193 2464.029)">
      <g id="Group_9" data-name="Group 9" transform="translate(0 0)">
        <path id="Path_5" data-name="Path 5" d="M34.169,51.287a14.6,14.6,0,0,1-4.036,1.106,6.966,6.966,0,0,0,3.082-3.872,14,14,0,0,1-4.442,1.7,7,7,0,0,0-12.117,4.79,7.213,7.213,0,0,0,.162,1.6A19.828,19.828,0,0,1,2.379,49.277a7.007,7.007,0,0,0,2.153,9.362,6.918,6.918,0,0,1-3.165-.863v.077a7.037,7.037,0,0,0,5.612,6.883,6.991,6.991,0,0,1-1.837.231,6.194,6.194,0,0,1-1.326-.12,7.072,7.072,0,0,0,6.546,4.88,14.075,14.075,0,0,1-8.685,2.988A13.119,13.119,0,0,1,0,72.619a19.721,19.721,0,0,0,10.746,3.144c12.89,0,19.938-10.678,19.938-19.933,0-.31-.011-.609-.026-.905A13.975,13.975,0,0,0,34.169,51.287Z" transform="translate(0 -48)" fill="#fff"/>
      </g>
    </g>
  </g>
</svg>