<svg xmlns="http://www.w3.org/2000/svg" width="84.01" height="33.622" viewBox="0 0 84.01 33.622">
  <g id="Group_11" data-name="Group 11" transform="translate(-2085.054 -2461.966)">
    <g id="_003-linkedin-logo" data-name="003-linkedin-logo" transform="translate(2085.054 2461.966)">
      <g id="post-linkedin">
        <path id="Path_7" data-name="Path 7" d="M30.26,0H3.362A3.372,3.372,0,0,0,0,3.362v26.9a3.372,3.372,0,0,0,3.362,3.362h26.9a3.372,3.372,0,0,0,3.362-3.362V3.362A3.372,3.372,0,0,0,30.26,0ZM10.087,28.578H5.043V13.449h5.043ZM7.565,10.591a3.026,3.026,0,1,1,3.026-3.026A3.013,3.013,0,0,1,7.565,10.591ZM28.578,28.578H23.535v-8.91a2.522,2.522,0,1,0-5.043,0v8.91H13.449V13.449h5.043v2.017a5.43,5.43,0,0,1,4.2-2.354A5.956,5.956,0,0,1,28.578,19Z" fill="#fff"/>
      </g>
    </g>
    <g id="_004-facebook-app-logo" data-name="004-facebook-app-logo" transform="translate(2135.713 2462.237)">
      <path id="Path_6" data-name="Path 6" d="M31.509,0H1.841A1.841,1.841,0,0,0,0,1.842V31.51a1.842,1.842,0,0,0,1.841,1.842H17.813V20.436H13.467V15.4h4.346V11.69c0-4.307,2.63-6.653,6.473-6.653a36.047,36.047,0,0,1,3.883.2v4.5H25.5c-2.089,0-2.493.993-2.493,2.45V15.4H28l-.652,5.033H23.01V33.35h8.5a1.843,1.843,0,0,0,1.842-1.84V1.841A1.841,1.841,0,0,0,31.509,0Z" transform="translate(0 -0.001)" fill="#fff"/>
    </g>
  </g>
</svg>
